PathFileType	4	(X/Y/Z)	C:/Users/beibeiliu/ov580/test_trc\sequence.27_training_dense_left.trc
DataRate	CameraRate	NumFrames	NumMarkers	Units	OrigDataRate	OrigDataStartFrame	OrigNumFrames
120	120	19	19	mm	120	249	331
Frame#	Time	ThumbCMC			ThumbMCP			ThumbIP			ThumbTip			IndexMCP			IndexPIP			IndexTip			MiddleMCP			MiddlePIP			MiddleTip			RingMCP			RingPIP			RingTip			PinkyMCP			PinkyPIP			PinkyTip			BackHand1			BackHand2			BackHand3	
		X0	Y0	Z0	X1	Y1	Z1	X2	Y2	Z2	X3	Y3	Z3	X4	Y4	Z4	X5	Y5	Z5	X6	Y6	Z6	X7	Y7	Z7	X8	Y8	Z8	X9	Y9	Z9	X10	Y10	Z10	X11	Y11	Z11	X12	Y12	Z12	X13	Y13	Z13	X14	Y14	Z14	X15	Y15	Z15	X16	Y16	Z16	X17	Y17	Z17	X18	Y18	Z18	
248	2.06667	-216.312	5.20432	37.0882	-219.588	25.7828	15.5159	-218.281	37.0988	-4.21131	-209.711	48.7247	-24.3633	-201.278	-1.15256	-23.771	-205.792	21.0963	-41.4242	-206.334	48.1789	-38.6947	-176.157	-5.99821	-27.1565	-179.538	2.6806	-55.1063	-178.696	18.183	-73.7106	-161.179	0.159971	-18.0893	-161.472	8.56971	-43.3887	-162.823	20.5524	-60.5413	-145.799	10.1887	-4.24878	-143.754	17.5634	-24.5815	-141.19	26.7013	-44.9689	-165.707	-10.4395	23.4475	-168.567	-15.1714	50.6089	-190.038	-17.3499	35.7134	
249	2.075	-216.562	4.59326	36.0491	-220.612	25.7475	14.5859	-218.186	37.4561	-8.36893	-212.63	49.5932	-23.5944	-202.496	-0.0889347	-26.9799	-205.378	19.3128	-40.3316	-209.326	46.1926	-38.5264	-179.158	-6.24828	-25.8896	-177.435	2.46403	-51.7722	-176.451	20.3795	-73.9065	-161.099	-0.259979	-18.2138	-160.589	8.87457	-44.8564	-163.055	23.49	-63.8377	-146.877	8.52222	-6.1689	-142.634	16.6555	-23.0524	-141.267	25.2306	-42.3395	-162.171	-12.2758	25.3399	-169.616	-13.3161	51.1856	-193.3	-20.2699	36.9505	
250	2.08333	-213.162	4.33912	36.7871	-221.603	27.2133	14.1105	-217.773	37.6882	-7.40227	-212.349	48.133	-21.501	-206.944	-2.17217	-25.3294	-203.676	19.2168	-41.073	-207.849	51.0538	-37.7973	-179.024	-6.67837	-30.4383	-181.456	2.67073	-53.2567	-178.433	18.4097	-72.8282	-164.342	-1.00549	-18.2356	-158.524	8.85827	-42.5293	-162.741	20.3158	-60.4568	-148.866	7.63497	-4.29269	-144.076	16.4993	-23.4554	-142.602	23.5037	-40.6851	-167.996	-13.8576	26.0203	-170.902	-14.2881	51.7078	-192.104	-18.7794	36.6623	
251	2.09167	-218.217	4.92903	39.193	-222.658	26.9707	16.9876	-218.21	37.8298	-5.80768	-209.362	46.9629	-23.9769	-205.235	-1.06509	-26.6458	-206.445	20.7626	-41.2888	-209.834	46.0509	-38.1694	-182.544	-7.21217	-29.1068	-179.807	1.66178	-51.9773	-180.229	17.9926	-73.4074	-163.013	-1.89845	-21.1623	-162.459	6.22121	-42.9575	-162.208	20.6563	-61.8948	-150.368	7.89536	-3.36426	-144.922	14.4321	-23.3894	-144.423	23.3197	-44.7156	-169.174	-14.2793	23.7962	-170.893	-15.9464	52.1924	-190.405	-20.7654	35.1145	
252	2.1	-215.586	4.53728	38.9335	-223.931	26.2239	11.3099	-220.689	37.2574	-6.08059	-212.253	49.1644	-24.4069	-206.419	-4.00628	-24.4678	-204.728	21.4273	-42.5341	-208.358	47.9424	-38.7283	-180.451	-8.14703	-30.565	-181.648	-0.185228	-52.9736	-181.746	18.8128	-77.5944	-163.768	-2.6521	-19.9692	-162.174	4.21034	-40.971	-160.06	17.3506	-60.3992	-145.564	8.41913	-6.15394	-147.176	15.3795	-27.474	-146.445	23.1192	-44.8771	-169.518	-12.4323	25.759	-171.493	-16.2106	51.2209	-193.224	-21.253	34.7179	
253	2.10833	-219.95	6.06082	39.0614	-221.219	26.3161	13.6063	-221.473	37.904	-8.25938	-213.958	50.0437	-26.8155	-202.27	-3.14024	-27.8737	-206.98	16.002	-43.4353	-211.027	43.9195	-41.9452	-181.692	-9.25532	-31.333	-181.932	-3.46198	-52.9206	-180.247	14.9157	-75.4794	-161.43	-4.03836	-22.3664	-158.461	2.47057	-43.1004	-159.917	15.2615	-64.9601	-146.299	6.67082	-6.47171	-144.947	14.3534	-27.4109	-140.821	20.1302	-42.9588	-167.556	-14.1186	22.385	-169.766	-16.3233	48.1846	-196.447	-19.4159	32.5686	
254	2.11667	-215.993	4.9337	33.8881	-223.457	27.6375	11.369	-220.552	37.8303	-7.10718	-210.831	49.1114	-28.4338	-205.813	-4.14636	-26.0967	-207.606	16.9897	-44.2391	-209.271	46.6069	-40.9986	-179.501	-10.2647	-26.6039	-180.057	-3.83909	-53.5361	-179.778	15.2693	-79.3822	-161.828	-5.58244	-19.0043	-160.446	0.37113	-45.833	-158.196	12.2534	-65.0454	-144.754	6.52325	-4.83903	-144.774	11.383	-24.8549	-141.618	19.107	-44.7199	-169.443	-14.4874	22.8125	-172.202	-14.4983	48.8742	-195.956	-19.5135	34.957	
255	2.125	-214.674	5.30978	34.5256	-221.677	26.4225	13.905	-220.907	38.1565	-6.89038	-210.261	48.4001	-27.1838	-204.805	-4.61173	-25.7032	-204.232	19.3391	-44.4863	-205.34	44.1793	-42.7765	-184.174	-10.7483	-29.8736	-178.373	-3.37097	-51.999	-177.182	13.6521	-76.3024	-164.712	-6.88357	-18.8678	-157.709	-0.259166	-44.9233	-159.791	8.7892	-66.2257	-145.912	3.60288	-7.44821	-140.232	10.7037	-22.1172	-137.431	18.164	-44.028	-169.878	-14.1052	23.402	-172.604	-15.9513	49.6171	-193.054	-20.2282	36.1527	
256	2.13333	-218.091	5.26413	37.76	-223.438	27.3785	13.7411	-217.676	36.244	-6.95082	-212.467	49.7296	-28.3181	-207.036	-3.80434	-24.2432	-208.634	21.1223	-44.1475	-206.34	47.266	-41.2289	-179.32	-9.91303	-27.4117	-178.812	-3.73447	-53.2317	-178.523	11.7334	-75.5147	-164.638	-6.7231	-22.1769	-159.172	-1.77097	-43.5431	-159.692	8.73991	-63.6117	-146.029	2.90979	-4.87329	-144.536	6.82781	-24.4885	-139.623	14.0881	-41.9631	-168.889	-13.7308	22.9765	-172.232	-17.8922	49.7578	-192.299	-20.9074	35.7498	
257	2.14167	-219.958	6.74167	38.0239	-224.346	28.2364	12.6343	-218.601	37.7026	-4.36109	-211.192	50.0187	-24.3685	-208.415	-0.783907	-29.0349	-204.402	22.962	-43.0886	-204.589	46.4345	-40.5818	-185.492	-10.7706	-30.1829	-179.425	-0.460578	-57.0146	-181.404	13.4159	-77.2268	-165.097	-6.76536	-17.4252	-160.319	-1.82492	-42.4395	-163.78	8.29125	-62.6919	-147.127	3.43497	-4.85996	-142.964	8.39944	-25.6529	-136.049	13.1588	-42.9917	-170.342	-13.3596	21.4878	-171.985	-18.1527	50.1119	-193.599	-19.2184	30.0208	
258	2.15	-218.102	7.12325	36.4676	-221.634	29.2055	17.759	-222.631	42.8594	-7.04263	-213.849	52.1672	-23.6677	-206.872	1.35888	-27.4554	-204.914	22.7449	-43.1621	-204.995	48.3475	-41.3401	-181.646	-9.03522	-29.4967	-183.149	-0.174819	-57.3048	-177.152	16.1754	-78.4811	-165.848	-5.68136	-21.8152	-164.107	-0.533881	-46.0445	-160.983	12.6197	-66.8643	-148.247	1.58176	-7.62585	-139.395	7.25534	-26.3806	-137.186	12.2407	-40.5021	-169.111	-14.2618	24.104	-175.645	-18.2365	47.7964	-195.347	-18.5135	32.0187	
259	2.15833	-219.893	9.01188	33.5586	-223.623	32.0204	14.3706	-219.983	43.3492	-8.42746	-214.743	57.4624	-23.9521	-206.036	2.52362	-27.8121	-209.662	23.7371	-43.7736	-206.631	50.8012	-42.5285	-183.895	-8.45652	-30.4501	-181.875	-1.7403	-53.6304	-179.853	15.5925	-80.1596	-163.961	-4.53768	-22.5706	-162.272	1.61369	-43.2381	-164.028	16.5923	-65.7604	-150.365	0.96958	-3.33934	-138.685	6.11657	-22.5382	-136.392	9.48947	-43.5031	-168.826	-16.0795	24.906	-176.253	-17.8047	48.2242	-201.051	-20.3513	30.1708	
260	2.16667	-218.065	9.65936	33.7887	-223.62	33.2183	14.1772	-220.164	45.3768	-5.56553	-213.329	57.881	-20.2499	-205.271	6.00383	-29.9112	-202.857	25.1357	-42.8469	-204.198	53.7094	-43.6312	-185.148	-6.80397	-29.9568	-182.47	-0.443972	-54.0596	-179.251	14.5832	-80.1787	-168.404	-2.98624	-20.3306	-164.446	4.6402	-43.8851	-162.297	21.7368	-61.6817	-146.211	0.907622	-8.15385	-140.83	3.63174	-21.1919	-133.628	7.01235	-43.9245	-169.501	-14.4405	23.7572	-175.308	-18.1535	47.6565	-196.668	-17.7631	30.907	
261	2.175	-218.129	10.1157	37.4241	-222.499	35.0548	15.2611	-217.475	47.1384	-7.26696	-212.188	59.7019	-22.3784	-209.684	8.13661	-29.5725	-206.775	31.0892	-44.73	-199.413	56.0992	-43.7436	-184.864	-5.28999	-31.6566	-179.279	2.59741	-55.7439	-175.945	14.3865	-76.0118	-165.205	-0.667516	-19.9138	-159.461	11.345	-45.3079	-163.517	30.2093	-59.0712	-148.538	1.64517	-4.13208	-139.471	6.19238	-20.5457	-132.898	9.68813	-41.3117	-171.746	-12.9568	19.2367	-173.994	-18.6107	44.7364	-202.849	-17.9785	30.1496	
262	2.18333	-218.167	10.7932	36.7229	-218.272	33.8935	14.3938	-218.47	47.586	-1.10402	-211.159	62.7973	-24.0992	-204.871	9.27885	-29.9018	-206.727	32.8494	-45.0085	-198.98	58.8395	-45.1626	-184.422	-2.88414	-29.0662	-181.424	3.12015	-55.3123	-174.213	15.6999	-78.4329	-164.486	2.42844	-22.0788	-160.988	19.4695	-44.4253	-166.352	40.0354	-52.086	-144.712	2.75142	-4.9863	-135.912	9.15953	-22.8009	-131.543	9.59964	-36.9127	-175.488	-14.0796	22.8996	-175.116	-18.8071	49.4572	-198.425	-16.1032	31.1062	
263	2.19167	-221.362	13.0898	36.7257	-221.89	37.7373	13.398	-218.623	51.1566	-4.78903	-210.928	62.5986	-21.1442	-208.569	11.4395	-29.7798	-205.496	34.04	-45.9286	-203.593	57.8811	-47.0194	-184.158	-1.27563	-29.7718	-178.817	5.33935	-56.975	-173.634	17.772	-81.6016	-167.984	5.63638	-22.5666	-161.211	24.8487	-39.7095	-170.102	50.642	-40.6665	-148.412	5.64542	-4.61045	-139.508	11.5224	-24.2969	-130.398	14.3889	-40.0574	-171.978	-11.3778	20.8495	-175.963	-16.606	48.321	-202.578	-14.9432	26.2238	
264	2.2	-217.265	12.1383	36.369	-220.112	36.8436	18.5235	-217.759	52.7232	-5.98766	-212.4	64.6389	-18.7683	-204.412	12.0742	-30.201	-207.328	31.1439	-44.7852	-202.405	57.0391	-48.9915	-180.018	0.604613	-33.8159	-179.907	8.13654	-56.2685	-174.985	19.1623	-79.2026	-164.798	9.69164	-21.0153	-165.766	34.12	-36.6636	-173.767	56.2557	-26.9856	-145.167	7.10749	-6.96861	-139.052	11.8323	-20.8606	-133.799	18.0374	-37.2473	-175.439	-10.4372	19.8335	-176.839	-15.9113	44.3618	-200.811	-16.3371	28.7334	
265	2.20833	-219.142	13.5567	30.9571	-218.432	36.7411	16.8443	-219.583	52.1216	-2.43232	-210.853	63.8882	-19.0776	-203.534	11.6347	-27.5491	-203.515	35.7536	-47.3966	-200.187	57.2762	-50.1153	-181.511	2.55173	-30.9513	-174.212	9.91645	-52.8722	-169.631	22.0176	-77.8545	-165.307	15.6532	-23.6497	-162.321	42.0777	-30.2533	-173.935	59.2899	-16.5407	-145.665	8.62111	-4.74584	-136.808	17.2096	-23.6498	-129.872	23.4893	-38.7908	-172.601	-12.0816	20.9199	-176.162	-17.5011	42.5464	-202.446	-15.8117	26.1528	
266	2.21667	-218.544	13.7683	30.9735	-217.692	36.8258	14.2387	-217.901	51.7847	-2.88993	-209.672	64.6814	-19.7401	-201.725	12.7293	-28.5904	-203.414	32.1277	-46.7968	-201.199	57.1375	-52.1916	-176.209	4.51215	-30.7787	-172.226	13.1397	-54.0153	-165.606	25.794	-79.1821	-163.828	18.0837	-21.2157	-163.176	45.4833	-25.9934	-176.273	63.0807	-3.5067	-144.669	11.4887	-6.7803	-134.406	19.5529	-21.3757	-130.216	26.1063	-37.5115	-172.452	-11.1671	17.2877	-173.613	-15.0199	45.1825	-200.616	-14.3019	27.0507	
